<svg xmlns="http://www.w3.org/2000/svg" xmlns:xlink="http://www.w3.org/1999/xlink" width="1120" zoomAndPan="magnify" viewBox="0 0 840 839.999992" height="1120" preserveAspectRatio="xMidYMid meet" version="1.0"><defs><g/><clipPath id="1cd4da3a92"><path d="M 443 243 L 837.53125 243 L 837.53125 735.046875 L 443 735.046875 Z M 443 243 " clip-rule="nonzero"/></clipPath><clipPath id="044dc1ceed"><path d="M 0.527344 243 L 395 243 L 395 735.046875 L 0.527344 735.046875 Z M 0.527344 243 " clip-rule="nonzero"/></clipPath></defs><g fill="#000000" fill-opacity="1"><g transform="translate(836.249961, 833.249978)"><g><path d="M 0.453125 -21 L 9.265625 -21 C 12.285156 -21 14.535156 -20.5625 16.015625 -19.6875 C 17.492188 -18.820312 18.234375 -17.269531 18.234375 -15.03125 C 18.234375 -12.550781 17.335938 -10.84375 15.546875 -9.90625 C 13.859375 -9.039062 11.503906 -8.609375 8.484375 -8.609375 L 8.25 -8.609375 L 8.25 -0.5625 L 12 -0.5625 L 12 0 L 0.453125 0 L 0.453125 -0.5625 L 2.40625 -0.5625 L 2.40625 -20.4375 L 0.453125 -20.4375 Z M 8.25 -20.4375 L 8.25 -9.1875 L 8.875 -9.1875 C 10.082031 -9.1875 10.914062 -9.59375 11.375 -10.40625 C 11.832031 -11.226562 12.0625 -12.5625 12.0625 -14.40625 L 12.0625 -15.84375 C 12.0625 -17.539062 11.84375 -18.726562 11.40625 -19.40625 C 10.976562 -20.09375 10.195312 -20.4375 9.0625 -20.4375 Z M 8.25 -20.4375 "/></g></g></g><g clip-path="url(#1cd4da3a92)"><path fill="#bfb634" d="M 827.140625 243.246094 C 818.003906 244.300781 808.480469 243.761719 788.035156 263.246094 C 767.347656 282.960938 751.886719 324.335938 749.082031 352.769531 C 748.1875 361.804688 747.828125 368.238281 747.707031 372.628906 C 747.554688 378.171875 741.074219 383.648438 737.78125 388.101562 C 720.167969 411.890625 669.175781 473.90625 647.949219 497.804688 C 644.851562 501.292969 639.042969 498.402344 639.214844 494.429688 C 639.335938 491.453125 640.992188 488.125 643.101562 483.183594 C 650.566406 465.722656 716.339844 389.394531 686.242188 366.597656 C 657.386719 344.746094 613.878906 410.109375 603.4375 429.378906 C 599.378906 436.859375 594.421875 444.804688 589.65625 451.976562 C 589.65625 451.976562 578.496094 483.292969 565.78125 492.542969 C 538.746094 511.394531 503.996094 524.753906 476.660156 564.058594 C 451.582031 600.117188 449.625 626.757812 448.097656 638.589844 C 446.269531 652.753906 449.667969 663.164062 447.851562 671.011719 L 443.320312 728.285156 C 442.960938 732.109375 446.132812 735.328125 449.96875 735.027344 L 525.164062 735.035156 L 577.226562 735.035156 C 577.226562 735.035156 579.636719 735.679688 581.78125 727.109375 C 586.964844 706.3125 597.722656 687.324219 612.59375 671.878906 C 629.761719 654.058594 654.074219 630.214844 685.847656 595.339844 C 767.417969 505.800781 760.777344 504.65625 772.691406 474.355469 C 781.316406 452.414062 795.953125 416.808594 803.769531 396.671875 C 806.058594 390.75 809.226562 385.757812 811.257812 378.199219 L 837.523438 252.957031 C 837.804688 247.210938 832.863281 242.578125 827.140625 243.246094 " fill-opacity="1" fill-rule="nonzero"/></g><g clip-path="url(#044dc1ceed)"><path fill="#bfb634" d="M 10.917969 243.246094 C 20.054688 244.300781 29.582031 243.761719 50.027344 263.246094 C 70.710938 282.960938 86.179688 324.335938 88.988281 352.769531 C 89.878906 361.804688 90.238281 368.238281 90.359375 372.628906 C 90.507812 378.171875 96.984375 383.648438 100.285156 388.101562 C 117.894531 411.890625 168.890625 473.90625 190.109375 497.804688 C 193.214844 501.292969 199.015625 498.402344 198.851562 494.429688 C 198.722656 491.453125 197.078125 488.125 194.957031 483.183594 C 187.492188 465.722656 121.71875 389.394531 151.816406 366.597656 C 180.679688 344.746094 224.179688 410.109375 234.621094 429.378906 C 238.679688 436.859375 243.640625 444.804688 248.402344 451.976562 C 248.402344 451.976562 259.574219 483.292969 272.28125 492.542969 C 299.316406 511.394531 334.070312 524.753906 361.40625 564.058594 C 386.476562 600.117188 388.433594 626.757812 389.960938 638.589844 C 391.789062 652.753906 388.398438 663.164062 390.210938 671.011719 L 394.75 728.285156 C 395.101562 732.109375 391.925781 735.328125 388.097656 735.027344 L 312.898438 735.035156 L 260.84375 735.035156 C 260.84375 735.035156 258.421875 735.679688 256.285156 727.109375 C 251.09375 706.3125 240.335938 687.324219 225.46875 671.878906 C 208.300781 654.058594 183.984375 630.214844 152.210938 595.339844 C 70.644531 505.800781 77.292969 504.65625 65.375 474.355469 C 56.742188 452.414062 42.105469 416.808594 34.300781 396.671875 C 32 390.75 28.84375 385.757812 26.800781 378.199219 L 0.539062 252.957031 C 0.253906 247.210938 5.203125 242.578125 10.917969 243.246094 " fill-opacity="1" fill-rule="nonzero"/></g><path fill="#bfb634" d="M 605.675781 264.910156 L 445.035156 104.269531 L 445.320312 103.996094 L 419.671875 78.359375 C 412.089844 70.773438 399.8125 70.730469 392.183594 78.261719 L 366.082031 103.996094 L 366.359375 104.269531 L 205.714844 264.910156 C 194.964844 275.667969 194.964844 293.105469 205.714844 303.863281 L 206.113281 304.25 C 216.863281 315.007812 234.304688 315.007812 245.054688 304.25 L 405.695312 143.617188 L 566.339844 304.25 C 577.089844 315.007812 594.53125 315.007812 605.28125 304.25 L 605.675781 303.863281 C 616.4375 293.105469 616.4375 275.667969 605.675781 264.910156 " fill-opacity="1" fill-rule="nonzero"/><path fill="#bfb634" d="M 399.84375 339.195312 L 399.84375 298.164062 C 399.84375 294.84375 397.160156 292.160156 393.839844 292.160156 L 352.808594 292.160156 C 349.5 292.160156 346.804688 294.84375 346.804688 298.164062 L 346.804688 339.195312 C 346.804688 342.515625 349.5 345.199219 352.808594 345.199219 L 393.839844 345.199219 C 397.160156 345.199219 399.84375 342.515625 399.84375 339.195312 " fill-opacity="1" fill-rule="nonzero"/><path fill="#bfb634" d="M 417.554688 345.199219 L 458.582031 345.199219 C 461.902344 345.199219 464.589844 342.515625 464.589844 339.195312 L 464.589844 298.164062 C 464.589844 294.84375 461.902344 292.160156 458.582031 292.160156 L 417.554688 292.160156 C 414.234375 292.160156 411.546875 294.84375 411.546875 298.164062 L 411.546875 339.195312 C 411.546875 342.515625 414.234375 345.199219 417.554688 345.199219 " fill-opacity="1" fill-rule="nonzero"/><path fill="#bfb634" d="M 411.546875 362.910156 L 411.546875 403.9375 C 411.546875 407.25 414.234375 409.945312 417.554688 409.945312 L 458.582031 409.945312 C 461.902344 409.945312 464.589844 407.25 464.589844 403.9375 L 464.589844 362.910156 C 464.589844 359.589844 461.902344 356.902344 458.582031 356.902344 L 417.554688 356.902344 C 414.234375 356.902344 411.546875 359.589844 411.546875 362.910156 " fill-opacity="1" fill-rule="nonzero"/><path fill="#bfb634" d="M 393.839844 356.902344 L 352.808594 356.902344 C 349.5 356.902344 346.804688 359.589844 346.804688 362.910156 L 346.804688 403.9375 C 346.804688 407.25 349.5 409.945312 352.808594 409.945312 L 393.839844 409.945312 C 397.160156 409.945312 399.84375 407.25 399.84375 403.9375 L 399.84375 362.910156 C 399.84375 359.589844 397.160156 356.902344 393.839844 356.902344 " fill-opacity="1" fill-rule="nonzero"/><path fill="#bfb634" d="M 331.335938 214.152344 L 263.304688 214.152344 L 263.304688 106.019531 C 263.304688 100.65625 267.65625 96.308594 273.027344 96.308594 L 321.621094 96.308594 C 326.984375 96.308594 331.335938 100.65625 331.335938 106.019531 L 331.335938 214.152344 " fill-opacity="1" fill-rule="nonzero"/></svg>