<svg xmlns="http://www.w3.org/2000/svg" xmlns:xlink="http://www.w3.org/1999/xlink" width="1120" zoomAndPan="magnify" viewBox="0 0 840 839.999992" height="1120" preserveAspectRatio="xMidYMid meet" version="1.0"><path fill="#f2cd5c" d="M 138.484375 427.898438 L 139.269531 427.898438 C 145.65625 428.140625 151.671875 431.039062 155.835938 435.832031 L 224.300781 515.089844 L 224.300781 280.871094 L 64.394531 280.871094 L 64.394531 492.460938 L 122.246094 434.613281 C 126.5625 430.273438 132.339844 427.898438 138.484375 427.898438 Z M 138.484375 427.898438 " fill-opacity="1" fill-rule="nonzero"/><path fill="#f2cd5c" d="M 435.457031 529.628906 L 435.457031 420.269531 L 275.546875 420.269531 L 275.546875 574.421875 L 328.386719 635.585938 Z M 435.457031 529.628906 " fill-opacity="1" fill-rule="nonzero"/><path fill="#f2cd5c" d="M 646.632812 84.0625 L 486.722656 84.0625 L 486.722656 478.90625 L 646.632812 320.675781 Z M 646.632812 84.0625 " fill-opacity="1" fill-rule="nonzero"/><path fill="#f2cd5c" d="M 836.265625 192.15625 C 833.472656 188.964844 829.210938 187.496094 825.019531 188.257812 L 719.375 207.832031 C 712.828125 209.046875 708.511719 215.339844 709.726562 221.890625 C 710.941406 228.441406 717.21875 232.757812 723.765625 231.539062 L 787.855469 219.679688 L 327.765625 674.960938 L 147.585938 466.375 C 145.410156 463.835938 142.253906 462.328125 138.914062 462.203125 C 135.558594 462.09375 132.308594 463.363281 129.933594 465.738281 L 0 595.667969 L 0 629.769531 L 137.824219 491.945312 L 317.949219 700.476562 C 320.144531 702.996094 323.265625 704.503906 326.605469 704.628906 C 329.941406 704.738281 333.191406 703.503906 335.566406 701.164062 L 801.710938 239.878906 L 782.667969 298.941406 C 780.617188 305.269531 784.101562 312.074219 790.429688 314.121094 C 791.664062 314.519531 792.914062 314.703125 794.148438 314.703125 C 799.226562 314.703125 803.960938 311.453125 805.613281 306.339844 L 838.679688 203.816406 C 839.988281 199.769531 839.078125 195.34375 836.269531 192.152344 Z M 836.265625 192.15625 " fill-opacity="1" fill-rule="nonzero"/></svg>