<svg xmlns="http://www.w3.org/2000/svg" xmlns:xlink="http://www.w3.org/1999/xlink" width="1120" zoomAndPan="magnify" viewBox="0 0 840 839.999992" height="1120" preserveAspectRatio="xMidYMid meet" version="1.0"><defs><g/></defs><path fill="#bf913b" d="M 259.746094 551.390625 L 580.253906 551.390625 L 580.253906 592.40625 L 259.746094 592.40625 Z M 259.746094 551.390625 " fill-opacity="1" fill-rule="evenodd"/><path fill="#bf913b" d="M 391.898438 568.101562 L 448.101562 568.101562 L 448.101562 840 L 391.898438 840 Z M 391.898438 568.101562 " fill-opacity="1" fill-rule="evenodd"/><path fill="#bf913b" d="M 191.390625 613.671875 C 188.355469 645.570312 159.492188 668.355469 127.59375 663.796875 C 95.695312 660.757812 72.910156 631.898438 77.46875 600 L 97.214844 434.429688 C 100.253906 402.53125 129.113281 379.746094 161.011719 384.304688 C 192.910156 387.339844 215.695312 416.203125 211.140625 448.101562 Z M 191.390625 613.671875 " fill-opacity="1" fill-rule="nonzero"/><path fill="#bf913b" d="M 171.644531 236.960938 C 205.0625 236.960938 232.40625 264.304688 232.40625 297.722656 C 232.40625 331.140625 205.0625 358.480469 171.644531 358.480469 C 138.226562 358.480469 110.886719 331.140625 110.886719 297.722656 C 110.886719 264.304688 138.226562 236.960938 171.644531 236.960938 Z M 171.644531 236.960938 " fill-opacity="1" fill-rule="evenodd"/><path fill="#bf913b" d="M 157.976562 437.46875 C 148.859375 426.835938 150.378906 411.644531 159.492188 404.050781 C 170.125 394.9375 185.316406 396.457031 192.910156 405.570312 L 253.671875 475.441406 L 311.390625 475.441406 C 325.0625 475.441406 335.695312 486.074219 335.695312 499.746094 C 335.695312 513.417969 325.0625 524.050781 311.390625 524.050781 L 243.039062 524.050781 C 236.960938 524.050781 229.367188 521.011719 224.808594 516.457031 L 156.457031 438.988281 Z M 157.976562 437.46875 " fill-opacity="1" fill-rule="nonzero"/><path fill="#bf913b" d="M 129.113281 663.796875 C 113.925781 660.757812 100.253906 628.859375 101.773438 613.671875 C 104.808594 598.480469 120 587.847656 135.191406 590.886719 C 135.191406 590.886719 293.164062 616.707031 361.519531 791.390625 C 367.59375 806.582031 360 823.292969 344.808594 827.847656 C 329.621094 833.925781 312.910156 826.328125 308.355469 811.140625 C 253.671875 666.835938 130.632812 663.796875 130.632812 663.796875 Z M 129.113281 663.796875 " fill-opacity="1" fill-rule="nonzero"/><path fill="#bf913b" d="M 186.835938 695.695312 C 191.390625 697.214844 194.429688 703.292969 192.910156 707.847656 C 191.390625 712.40625 185.316406 715.441406 180.757812 713.925781 C 180.757812 713.925781 165.570312 709.367188 145.824219 704.808594 C 132.152344 701.773438 116.960938 701.773438 103.292969 701.773438 C 66.835938 701.773438 36.457031 701.773438 27.339844 659.242188 C 25.824219 651.644531 24.304688 642.53125 22.785156 631.898438 C 22.785156 622.785156 21.265625 612.152344 21.265625 601.519531 C 21.265625 587.847656 21.265625 575.695312 21.265625 565.0625 C 21.265625 521.011719 21.265625 486.074219 12.152344 434.429688 C 10.632812 429.875 15.191406 423.796875 19.746094 423.796875 C 24.304688 422.277344 30.378906 426.835938 30.378906 431.390625 C 39.492188 484.558594 39.492188 519.492188 39.492188 565.0625 C 39.492188 577.214844 39.492188 587.847656 39.492188 601.519531 C 39.492188 610.632812 39.492188 621.265625 41.011719 630.378906 C 41.011719 639.492188 42.53125 647.089844 44.050781 654.683594 C 50.125 682.023438 74.429688 682.023438 101.773438 682.023438 C 116.960938 682.023438 132.152344 682.023438 147.339844 685.0625 C 168.609375 689.621094 183.796875 694.175781 183.796875 694.175781 Z M 186.835938 695.695312 " fill-opacity="1" fill-rule="nonzero"/><path fill="#bf913b" d="M 92.660156 692.660156 L 116.960938 692.660156 L 116.960938 832.40625 L 92.660156 832.40625 Z M 92.660156 692.660156 " fill-opacity="1" fill-rule="nonzero"/><path fill="#bf913b" d="M 148.859375 814.175781 C 154.9375 814.175781 161.011719 820.253906 161.011719 826.328125 C 161.011719 832.40625 154.9375 838.480469 148.859375 838.480469 L 60.757812 838.480469 C 54.683594 838.480469 48.609375 832.40625 48.609375 826.328125 C 48.609375 820.253906 54.683594 814.175781 60.757812 814.175781 Z M 148.859375 814.175781 " fill-opacity="1" fill-rule="nonzero"/><path fill="#bf913b" d="M 648.609375 613.671875 C 651.644531 645.570312 680.507812 668.355469 712.40625 663.796875 C 744.304688 660.757812 767.089844 631.898438 762.53125 600 L 742.785156 434.429688 C 739.746094 402.53125 710.886719 379.746094 678.988281 384.304688 C 647.089844 387.339844 624.304688 416.203125 628.859375 448.101562 Z M 648.609375 613.671875 " fill-opacity="1" fill-rule="nonzero"/><path fill="#bf913b" d="M 668.355469 236.960938 C 634.9375 236.960938 607.59375 264.304688 607.59375 297.722656 C 607.59375 331.140625 634.9375 358.480469 668.355469 358.480469 C 701.773438 358.480469 729.113281 331.140625 729.113281 297.722656 C 729.113281 264.304688 701.773438 236.960938 668.355469 236.960938 Z M 668.355469 236.960938 " fill-opacity="1" fill-rule="evenodd"/><path fill="#bf913b" d="M 682.023438 437.46875 C 691.140625 426.835938 689.621094 411.644531 680.507812 404.050781 C 669.875 394.9375 654.683594 396.457031 647.089844 405.570312 L 586.328125 475.441406 L 528.609375 475.441406 C 514.9375 475.441406 504.304688 486.074219 504.304688 499.746094 C 504.304688 513.417969 514.9375 524.050781 528.609375 524.050781 L 596.960938 524.050781 C 603.039062 524.050781 610.632812 521.011719 615.191406 516.457031 L 683.542969 438.988281 Z M 682.023438 437.46875 " fill-opacity="1" fill-rule="nonzero"/><path fill="#bf913b" d="M 712.40625 663.796875 C 727.59375 660.757812 741.265625 628.859375 739.746094 613.671875 C 736.707031 598.480469 721.519531 587.847656 706.328125 590.886719 C 706.328125 590.886719 548.355469 616.707031 480 791.390625 C 473.925781 806.582031 481.519531 823.292969 496.707031 827.847656 C 511.898438 833.925781 528.609375 826.328125 533.164062 811.140625 C 587.847656 666.835938 710.886719 663.796875 710.886719 663.796875 Z M 712.40625 663.796875 " fill-opacity="1" fill-rule="nonzero"/><path fill="#bf913b" d="M 653.164062 695.695312 C 648.609375 697.214844 645.570312 703.292969 647.089844 707.847656 C 648.609375 712.40625 654.683594 715.441406 659.242188 713.925781 C 659.242188 713.925781 674.429688 709.367188 694.175781 704.808594 C 707.847656 701.773438 723.039062 701.773438 736.707031 701.773438 C 773.164062 701.773438 803.542969 701.773438 812.65625 659.242188 C 814.175781 651.644531 815.695312 642.53125 817.214844 631.898438 C 817.214844 622.785156 818.734375 612.152344 818.734375 601.519531 C 818.734375 587.847656 818.734375 575.695312 818.734375 565.0625 C 818.734375 521.011719 818.734375 486.074219 827.847656 434.429688 C 829.367188 429.875 824.808594 423.796875 820.253906 423.796875 C 815.695312 422.277344 809.621094 426.835938 809.621094 431.390625 C 800.507812 484.558594 800.507812 519.492188 800.507812 565.0625 C 800.507812 577.214844 800.507812 587.847656 800.507812 601.519531 C 800.507812 610.632812 800.507812 621.265625 798.988281 630.378906 C 798.988281 639.492188 797.46875 647.089844 795.949219 654.683594 C 789.875 682.023438 765.570312 682.023438 738.226562 682.023438 C 723.039062 682.023438 707.847656 682.023438 692.660156 685.0625 C 671.390625 689.621094 656.203125 694.175781 656.203125 694.175781 Z M 653.164062 695.695312 " fill-opacity="1" fill-rule="nonzero"/><path fill="#bf913b" d="M 723.039062 692.660156 L 723.039062 832.40625 L 747.339844 832.40625 L 747.339844 692.660156 Z M 723.039062 692.660156 " fill-opacity="1" fill-rule="nonzero"/><path fill="#bf913b" d="M 691.140625 814.175781 C 685.0625 814.175781 678.988281 820.253906 678.988281 826.328125 C 678.988281 832.40625 685.0625 838.480469 691.140625 838.480469 L 779.242188 838.480469 C 785.316406 838.480469 791.390625 832.40625 791.390625 826.328125 C 791.390625 820.253906 785.316406 814.175781 779.242188 814.175781 Z M 691.140625 814.175781 " fill-opacity="1" fill-rule="nonzero"/><path fill="#bf913b" d="M 314.429688 277.976562 C 318.988281 279.492188 323.542969 279.492188 326.582031 279.492188 L 460.253906 279.492188 L 531.644531 350.886719 L 531.644531 279.492188 C 568.101562 279.492188 598.480469 249.113281 598.480469 212.660156 L 598.480469 123.039062 C 598.480469 95.695312 581.773438 71.390625 558.988281 60.757812 C 558.988281 63.796875 558.988281 65.316406 558.988281 68.355469 L 558.988281 89.621094 C 568.101562 97.214844 574.175781 109.367188 574.175781 123.039062 L 574.175781 212.660156 C 574.175781 236.960938 554.429688 256.707031 530.125 256.707031 L 505.824219 256.707031 L 505.824219 294.683594 L 467.847656 256.707031 L 334.175781 256.707031 L 311.390625 279.492188 Z M 314.429688 277.976562 " fill-opacity="1" fill-rule="evenodd"/><path fill="#bf913b" d="M 268.859375 0 L 473.925781 0 C 510.378906 0 540.757812 30.378906 540.757812 66.835938 L 540.757812 156.457031 C 540.757812 192.910156 510.378906 223.292969 473.925781 223.292969 L 340.253906 223.292969 L 268.859375 294.683594 L 268.859375 223.292969 C 232.40625 223.292969 202.023438 192.910156 202.023438 156.457031 L 202.023438 66.835938 C 202.023438 30.378906 232.40625 0 268.859375 0 Z M 291.644531 86.582031 C 305.316406 86.582031 317.46875 98.734375 317.46875 112.40625 C 317.46875 126.074219 305.316406 138.226562 291.644531 138.226562 C 277.976562 138.226562 265.824219 126.074219 265.824219 112.40625 C 265.824219 98.734375 277.976562 86.582031 291.644531 86.582031 Z M 372.152344 86.582031 C 385.824219 86.582031 397.976562 98.734375 397.976562 112.40625 C 397.976562 126.074219 385.824219 138.226562 372.152344 138.226562 C 358.480469 138.226562 346.328125 126.074219 346.328125 112.40625 C 346.328125 98.734375 358.480469 86.582031 372.152344 86.582031 Z M 452.660156 86.582031 C 466.328125 86.582031 478.480469 98.734375 478.480469 112.40625 C 478.480469 126.074219 466.328125 138.226562 452.660156 138.226562 C 438.988281 138.226562 426.835938 126.074219 426.835938 112.40625 C 426.835938 98.734375 438.988281 86.582031 452.660156 86.582031 Z M 452.660156 86.582031 " fill-opacity="1" fill-rule="evenodd"/><g fill="#000000" fill-opacity="1"><g transform="translate(692.337857, 833.249978)"><g/></g></g><g fill="#000000" fill-opacity="1"><g transform="translate(697.737854, 833.249978)"><g/></g></g><g fill="#000000" fill-opacity="1"><g transform="translate(703.137851, 833.249978)"><g/></g></g><g fill="#000000" fill-opacity="1"><g transform="translate(708.537849, 833.249978)"><g/></g></g><g fill="#000000" fill-opacity="1"><g transform="translate(713.937846, 833.249978)"><g/></g></g><g fill="#000000" fill-opacity="1"><g transform="translate(719.337844, 833.249978)"><g/></g></g><g fill="#000000" fill-opacity="1"><g transform="translate(724.737841, 833.249978)"><g/></g></g><g fill="#000000" fill-opacity="1"><g transform="translate(730.137838, 833.249978)"><g/></g></g><g fill="#000000" fill-opacity="1"><g transform="translate(735.537836, 833.249978)"><g/></g></g><g fill="#000000" fill-opacity="1"><g transform="translate(740.937833, 833.249978)"><g/></g></g><g fill="#000000" fill-opacity="1"><g transform="translate(746.337831, 833.249978)"><g/></g></g><g fill="#000000" fill-opacity="1"><g transform="translate(751.737828, 833.249978)"><g/></g></g><g fill="#000000" fill-opacity="1"><g transform="translate(757.137825, 833.249978)"><g/></g></g><g fill="#000000" fill-opacity="1"><g transform="translate(762.537823, 833.249978)"><g/></g></g><g fill="#000000" fill-opacity="1"><g transform="translate(767.93782, 833.249978)"><g/></g></g><g fill="#000000" fill-opacity="1"><g transform="translate(773.337818, 833.249978)"><g/></g></g><g fill="#000000" fill-opacity="1"><g transform="translate(778.737815, 833.249978)"><g/></g></g><g fill="#000000" fill-opacity="1"><g transform="translate(784.137812, 833.249978)"><g/></g></g><g fill="#000000" fill-opacity="1"><g transform="translate(789.53781, 833.249978)"><g/></g></g><g fill="#000000" fill-opacity="1"><g transform="translate(794.937807, 833.249978)"><g/></g></g><g fill="#000000" fill-opacity="1"><g transform="translate(800.337805, 833.249978)"><g/></g></g><g fill="#000000" fill-opacity="1"><g transform="translate(805.737802, 833.249978)"><g/></g></g><g fill="#000000" fill-opacity="1"><g transform="translate(811.137799, 833.249978)"><g/></g></g><g fill="#000000" fill-opacity="1"><g transform="translate(816.537797, 833.249978)"><g/></g></g><g fill="#000000" fill-opacity="1"><g transform="translate(821.937794, 833.249978)"><g/></g></g><g fill="#000000" fill-opacity="1"><g transform="translate(827.337792, 833.249978)"><g/></g></g><g fill="#000000" fill-opacity="1"><g transform="translate(832.737789, 833.249978)"><g/></g></g><g fill="#000000" fill-opacity="1"><g transform="translate(838.137786, 833.249978)"><g/></g></g></svg>