<svg xmlns="http://www.w3.org/2000/svg" xmlns:xlink="http://www.w3.org/1999/xlink" width="1120" zoomAndPan="magnify" viewBox="0 0 840 839.999992" height="1120" preserveAspectRatio="xMidYMid meet" version="1.0"><path fill="#bf913b" d="M 506.527344 343.515625 L 467.691406 330.683594 L 467.691406 442.40625 L 506.527344 429.574219 L 506.527344 343.515625 " fill-opacity="1" fill-rule="nonzero"/><path fill="#bf913b" d="M 555.160156 330.683594 L 516.324219 343.515625 L 516.324219 429.574219 L 555.160156 442.40625 L 555.160156 330.683594 " fill-opacity="1" fill-rule="nonzero"/><path fill="#bf913b" d="M 599.011719 402.042969 L 611.035156 402.042969 L 611.035156 377.738281 L 599.011719 377.738281 L 599.011719 402.042969 " fill-opacity="1" fill-rule="nonzero"/><path fill="#bf913b" d="M 618.300781 370.472656 L 630.582031 370.472656 L 630.582031 346.144531 L 618.300781 346.144531 L 618.300781 370.472656 " fill-opacity="1" fill-rule="nonzero"/><path fill="#bf913b" d="M 618.300781 402.042969 L 630.582031 402.042969 L 630.582031 377.738281 L 618.300781 377.738281 L 618.300781 402.042969 " fill-opacity="1" fill-rule="nonzero"/><path fill="#bf913b" d="M 599.011719 370.472656 L 611.035156 370.472656 L 611.035156 346.144531 L 599.011719 346.144531 L 599.011719 370.472656 " fill-opacity="1" fill-rule="nonzero"/><path fill="#bf913b" d="M 392.269531 402.042969 L 407.0625 402.042969 L 407.0625 377.738281 L 392.269531 377.738281 L 392.269531 402.042969 " fill-opacity="1" fill-rule="nonzero"/><path fill="#bf913b" d="M 411.816406 370.472656 L 426.347656 370.472656 L 426.347656 346.144531 L 411.816406 346.144531 L 411.816406 370.472656 " fill-opacity="1" fill-rule="nonzero"/><path fill="#bf913b" d="M 411.816406 402.042969 L 426.347656 402.042969 L 426.347656 377.738281 L 411.816406 377.738281 L 411.816406 402.042969 " fill-opacity="1" fill-rule="nonzero"/><path fill="#bf913b" d="M 392.269531 370.472656 L 407.0625 370.472656 L 407.0625 346.144531 L 392.269531 346.144531 L 392.269531 370.472656 " fill-opacity="1" fill-rule="nonzero"/><path fill="#bf913b" d="M 336.179688 256.191406 L 687.414062 256.191406 C 696.542969 256.191406 700.34375 245.605469 693.460938 239.605469 L 630.582031 186.097656 L 630.582031 135.433594 C 630.582031 128 625.398438 120.113281 617.941406 120.113281 L 611.679688 120.113281 C 604.222656 120.113281 599.011719 128 599.011719 135.433594 L 599.011719 157.226562 L 518.691406 87.804688 C 514.988281 84.578125 509.25 84.578125 505.546875 87.804688 L 329.820312 239.605469 C 322.9375 245.605469 327.074219 256.191406 336.179688 256.191406 " fill-opacity="1" fill-rule="nonzero"/><path fill="#bf913b" d="M 637.5625 346.621094 L 637.5625 406.273438 L 591.507812 406.273438 L 591.507812 340.480469 L 637.5625 340.480469 Z M 567.347656 450.222656 L 457.535156 450.222656 L 457.535156 322.914062 L 567.347656 322.914062 Z M 431.175781 346.621094 L 431.175781 406.273438 L 387.34375 406.273438 L 387.34375 340.480469 L 431.175781 340.480469 Z M 666.097656 452.398438 L 666.097656 286.925781 C 666.097656 286.542969 666.070312 286.183594 666.023438 285.824219 L 666.023438 278.988281 L 358.785156 278.988281 L 358.785156 452.398438 C 340.601562 452.398438 325.855469 467.140625 325.855469 485.351562 L 325.855469 496.320312 L 699.050781 496.320312 L 699.050781 485.351562 C 699.050781 467.140625 684.308594 452.398438 666.097656 452.398438 " fill-opacity="1" fill-rule="nonzero"/><path fill="#bf913b" d="M 707.988281 521.582031 C 654.960938 576.191406 583.742188 606.277344 507.410156 606.277344 C 439.492188 606.277344 375.039062 582.140625 324.253906 537.976562 C 320.359375 534.605469 316.535156 531.09375 312.804688 527.484375 C 311.992188 526.695312 311.203125 525.90625 310.390625 525.09375 C 307.859375 522.539062 305.351562 519.957031 302.9375 517.304688 L 302.886719 517.351562 C 302.53125 516.96875 302.171875 516.5625 301.8125 516.179688 C 202.179688 408.066406 203.257812 239.078125 306.902344 132.324219 C 359.910156 77.695312 431.152344 47.605469 507.484375 47.605469 C 580.613281 47.605469 649.726562 75.589844 702.0625 126.398438 C 812.640625 233.726562 815.292969 411.003906 707.988281 521.582031 Z M 834.339844 320.308594 C 833.910156 298.730469 831.304688 277.078125 826.597656 256 C 821.9375 235.113281 815.199219 214.558594 806.523438 194.964844 C 797.871094 175.367188 787.261719 156.535156 774.953125 139.015625 C 762.550781 121.308594 748.304688 104.792969 732.675781 89.929688 C 702.230469 60.988281 667.292969 38.523438 628.816406 23.132812 C 590.339844 7.765625 549.542969 -0.0234375 507.578125 -0.0234375 C 505.449219 -0.0234375 503.300781 0 501.148438 0.046875 C 479.640625 0.453125 458.085938 2.988281 437.125 7.601562 C 416.335938 12.164062 395.925781 18.808594 376.449219 27.339844 C 356.96875 35.847656 338.234375 46.339844 320.765625 58.480469 C 303.152344 70.738281 286.636719 84.839844 271.726562 100.347656 C 211.621094 162.867188 179.214844 245.078125 180.503906 331.828125 C 181.101562 371.5 188.652344 410.074219 202.921875 446.492188 C 217.164062 482.796875 237.765625 516.0625 264.101562 545.335938 L 267.828125 549.449219 L 268.90625 550.644531 L 181.246094 636.484375 L 180.097656 635.363281 L 170.253906 625.636719 C 166 621.429688 159.140625 621.476562 154.933594 625.730469 L 15.941406 766.398438 C 8.4375 773.972656 4.421875 783.675781 3.847656 793.523438 C 3.777344 794.359375 3.753906 795.195312 3.753906 796.03125 C 3.753906 806.90625 7.933594 817.753906 16.273438 826.023438 C 26.742188 836.371094 41.273438 840.101562 54.65625 837.28125 C 62.46875 835.632812 69.878906 831.761719 75.902344 825.664062 L 214.917969 684.976562 C 219.125 680.722656 219.078125 673.863281 214.824219 669.65625 L 203.496094 658.472656 L 291.273438 572.511719 L 291.371094 572.414062 L 296.410156 576.691406 C 325.832031 601.617188 358.90625 620.902344 394.753906 634.046875 C 430.695312 647.214844 468.550781 653.90625 507.316406 653.90625 C 508.246094 653.90625 509.179688 653.90625 510.136719 653.882812 C 531.714844 653.714844 553.34375 651.398438 574.421875 647 C 595.285156 642.628906 615.835938 636.175781 635.433594 627.835938 C 655.054688 619.496094 673.933594 609.171875 691.570312 597.171875 C 709.351562 585.03125 726.035156 571.074219 741.113281 555.636719 C 803.011719 492.378906 836.109375 408.804688 834.339844 320.308594 " fill-opacity="1" fill-rule="nonzero"/></svg>