<svg xmlns="http://www.w3.org/2000/svg" xmlns:xlink="http://www.w3.org/1999/xlink" width="1120" zoomAndPan="magnify" viewBox="0 0 840 839.999992" height="1120" preserveAspectRatio="xMidYMid meet" version="1.0"><path fill="#f2cd5c" d="M 622.367188 657.359375 C 627.492188 652.59375 635.507812 652.882812 640.277344 658.003906 C 645.042969 663.128906 644.753906 671.144531 639.628906 675.910156 C 515.925781 790.863281 324.070312 790.863281 200.367188 675.910156 C 195.242188 671.144531 194.953125 663.128906 199.722656 658.003906 C 204.488281 652.882812 212.503906 652.59375 217.628906 657.359375 C 252.160156 689.449219 294.234375 713.164062 340.070312 725.90625 C 341.152344 726.207031 342.214844 725.398438 342.214844 724.273438 L 342.214844 575.089844 C 342.214844 553.210938 333.050781 534.378906 315.839844 520.878906 L 219.535156 445.34375 C 207.515625 435.910156 205.394531 418.363281 214.824219 406.339844 C 224.253906 394.316406 241.804688 392.195312 253.824219 401.625 L 363.523438 487.667969 C 380.519531 501 398.667969 507.089844 420.238281 507.089844 C 441.488281 507.089844 459.753906 500.785156 476.472656 487.667969 L 586.171875 401.625 C 598.191406 392.195312 615.742188 394.320312 625.171875 406.339844 C 634.601562 418.363281 632.480469 435.914062 620.460938 445.34375 L 524.160156 520.878906 C 506.945312 534.382812 497.78125 553.210938 497.78125 575.089844 L 497.78125 724.277344 C 497.78125 725.402344 498.84375 726.210938 499.929688 725.90625 C 545.835938 713.144531 587.742188 689.492188 622.367188 657.359375 Z M 361.207031 392.738281 C 361.207031 425.210938 387.527344 451.53125 420 451.53125 C 452.472656 451.53125 478.792969 425.207031 478.792969 392.738281 C 478.792969 360.269531 452.46875 333.945312 420 333.945312 C 387.527344 333.945312 361.207031 360.269531 361.207031 392.738281 Z M 717.964844 462.746094 L 734.589844 411.246094 C 737.585938 401.839844 750.886719 401.824219 753.898438 411.179688 L 770.542969 462.742188 C 770.769531 463.457031 771.40625 463.917969 772.15625 463.917969 L 825.605469 463.8125 C 837.175781 463.800781 839.714844 476.789062 832.3125 482.148438 L 788.410156 513.914062 C 787.808594 514.351562 787.5625 515.101562 787.796875 515.8125 L 804.640625 567.320312 L 804.613281 567.332031 C 807.617188 576.59375 796.953125 584.394531 789.046875 578.632812 L 745.25 546.683594 C 744.644531 546.242188 743.859375 546.242188 743.253906 546.683594 L 700.097656 578.164062 C 700.082031 578.175781 700.066406 578.183594 700.050781 578.199219 C 691.511719 584.886719 680.871094 576.492188 683.863281 567.320312 L 700.707031 515.808594 C 700.941406 515.097656 700.695312 514.351562 700.09375 513.914062 L 656.1875 482.144531 L 656.203125 482.125 C 648.3125 476.398438 652.359375 463.800781 662.140625 463.8125 L 716.347656 463.914062 C 717.097656 463.921875 717.734375 463.457031 717.964844 462.746094 Z M 631.144531 219.304688 L 650.246094 160.128906 C 653.242188 150.722656 666.542969 150.707031 669.554688 160.066406 L 688.675781 219.304688 C 688.90625 220.015625 689.542969 220.480469 690.289062 220.476562 L 751.804688 220.359375 C 763.378906 220.347656 765.914062 233.335938 758.515625 238.691406 L 708.078125 275.1875 C 707.472656 275.625 707.230469 276.375 707.464844 277.082031 L 726.816406 336.257812 L 726.789062 336.269531 C 729.792969 345.53125 719.125 353.332031 711.21875 347.570312 L 660.90625 310.867188 C 660.304688 310.425781 659.519531 310.425781 658.914062 310.867188 L 609.242188 347.101562 C 609.226562 347.117188 609.210938 347.125 609.195312 347.136719 C 600.65625 353.828125 590.015625 345.429688 593.007812 336.257812 L 612.359375 277.082031 C 612.59375 276.375 612.347656 275.625 611.742188 275.1875 L 561.308594 238.691406 L 561.320312 238.671875 C 553.433594 232.945312 557.476562 220.347656 567.257812 220.359375 L 629.53125 220.480469 C 630.28125 220.480469 630.917969 220.015625 631.144531 219.304688 Z M 429.664062 32.734375 L 450.570312 97.503906 C 450.800781 98.214844 451.4375 98.679688 452.183594 98.675781 L 520.335938 98.546875 C 530.117188 98.539062 534.164062 111.132812 526.273438 116.859375 L 526.289062 116.878906 L 471.089844 156.820312 C 470.484375 157.261719 470.242188 158.007812 470.472656 158.71875 L 491.65625 223.480469 C 494.644531 232.652344 484.003906 241.050781 475.464844 234.359375 C 475.449219 234.347656 475.4375 234.335938 475.417969 234.324219 L 421 194.625 C 420.394531 194.183594 419.609375 194.183594 419.003906 194.625 L 363.941406 234.792969 C 356.035156 240.550781 345.371094 232.753906 348.371094 223.492188 L 348.34375 223.480469 L 369.527344 158.71875 C 369.757812 158.007812 369.515625 157.257812 368.910156 156.820312 L 313.710938 116.878906 C 306.3125 111.523438 308.851562 98.535156 320.421875 98.546875 L 387.816406 98.675781 C 388.5625 98.675781 389.199219 98.214844 389.429688 97.503906 L 410.355469 32.667969 C 413.386719 23.261719 426.722656 23.386719 429.664062 32.734375 Z M 105.410156 411.246094 L 122.035156 462.746094 C 122.265625 463.460938 122.902344 463.921875 123.648438 463.921875 L 177.855469 463.816406 C 187.636719 463.808594 191.683594 476.402344 183.792969 482.128906 L 183.808594 482.148438 L 139.90625 513.917969 C 139.300781 514.355469 139.058594 515.105469 139.289062 515.8125 L 156.136719 567.324219 C 159.125 576.496094 148.484375 584.894531 139.949219 578.203125 C 139.929688 578.191406 139.917969 578.179688 139.902344 578.167969 L 96.746094 546.683594 C 96.140625 546.246094 95.355469 546.246094 94.75 546.683594 L 50.953125 578.632812 C 43.046875 584.394531 32.378906 576.597656 35.382812 567.332031 L 35.355469 567.324219 L 52.203125 515.8125 C 52.4375 515.101562 52.191406 514.351562 51.585938 513.917969 L 7.683594 482.148438 C 0.285156 476.792969 2.824219 463.804688 14.394531 463.816406 L 67.84375 463.917969 C 68.589844 463.921875 69.226562 463.457031 69.457031 462.746094 L 86.101562 411.183594 C 89.132812 401.773438 102.472656 401.898438 105.410156 411.246094 Z M 189.75 160.128906 L 208.851562 219.304688 C 209.082031 220.015625 209.71875 220.480469 210.464844 220.476562 L 272.738281 220.355469 C 282.519531 220.347656 286.566406 232.941406 278.675781 238.671875 L 278.691406 238.691406 L 228.253906 275.183594 C 227.648438 275.625 227.40625 276.371094 227.640625 277.082031 L 246.992188 336.257812 C 249.980469 345.429688 239.339844 353.824219 230.804688 347.136719 C 230.785156 347.121094 230.773438 347.113281 230.757812 347.101562 L 181.085938 310.867188 C 180.480469 310.425781 179.695312 310.425781 179.089844 310.867188 L 128.777344 347.570312 C 120.875 353.328125 110.207031 345.53125 113.207031 336.269531 L 113.179688 336.257812 L 132.535156 277.082031 C 132.769531 276.371094 132.523438 275.625 131.917969 275.1875 L 81.484375 238.691406 C 74.085938 233.335938 76.621094 220.347656 88.191406 220.359375 L 149.707031 220.476562 C 150.457031 220.480469 151.09375 220.015625 151.320312 219.304688 L 170.445312 160.066406 C 173.472656 150.65625 186.8125 150.78125 189.75 160.128906 Z M 189.75 160.128906 " fill-opacity="1" fill-rule="evenodd"/></svg>