<svg xmlns="http://www.w3.org/2000/svg" xmlns:xlink="http://www.w3.org/1999/xlink" width="1120" zoomAndPan="magnify" viewBox="0 0 840 839.999992" height="1120" preserveAspectRatio="xMidYMid meet" version="1.0"><path fill="#bfb634" d="M 499.425781 384.488281 C 507.917969 386.449219 514.582031 388.015625 519.414062 389.320312 L 520.199219 389.582031 L 521.113281 389.976562 C 523.335938 390.890625 525.425781 391.414062 527.90625 391.671875 L 528.429688 391.671875 C 530.390625 383.703125 528.167969 374.820312 507.527344 373.644531 C 470.164062 371.945312 465.070312 369.597656 465.070312 369.597656 C 465.070312 369.597656 445.734375 367.503906 426.664062 367.898438 C 433.71875 368.550781 441.554688 369.988281 450.046875 372.339844 C 469.902344 377.695312 486.753906 381.484375 499.425781 384.488281 Z M 499.425781 384.488281 " fill-opacity="1" fill-rule="nonzero"/><path fill="#bfb634" d="M 606.417969 581.488281 L 602.894531 586.453125 L 596.230469 587.105469 L 595.183594 587.105469 C 592.441406 587.105469 586.695312 586.453125 579.902344 582.535156 C 577.417969 581.097656 526.207031 549.746094 500.734375 530.148438 C 475.390625 510.554688 424.050781 476.980469 418.5625 474.238281 L 416.601562 473.320312 C 414.511719 472.40625 412.160156 471.230469 410.332031 471.230469 C 407.71875 471.230469 404.976562 474.367188 403.015625 476.980469 C 401.972656 483.902344 398.835938 500.886719 392.828125 514.863281 C 391.652344 526.621094 384.207031 545.695312 362.390625 554.839844 C 361.214844 555.230469 355.855469 557.191406 349.324219 557.191406 C 336.261719 557.191406 322.152344 549.222656 321.628906 526.492188 C 320.847656 503.238281 313.398438 471.753906 311.179688 467.050781 C 308.175781 461.695312 305.5625 451.246094 308.957031 440.402344 C 311.046875 433.871094 316.144531 424.984375 328.554688 419.109375 C 341.226562 413.230469 374.800781 386.449219 387.339844 376.128906 C 389.039062 374.558594 392.042969 372.207031 396.878906 370.378906 C 381.199219 371.554688 374.40625 367.898438 374.40625 367.898438 C 374.40625 367.898438 351.546875 362.933594 332.734375 381.613281 C 317.058594 397.03125 274.992188 417.800781 249.519531 423.289062 C 244.292969 424.464844 240.113281 428.253906 238.675781 433.476562 L 205.886719 563.59375 C 203.273438 571.691406 213.722656 576.132812 213.722656 576.132812 L 288.710938 618.460938 C 293.671875 621.335938 299.8125 620.8125 304.125 617.152344 C 315.230469 607.488281 328.554688 600.824219 328.816406 600.824219 C 333.648438 598.472656 339.394531 598.472656 343.445312 598.863281 C 348.28125 599.386719 364.480469 602 373.101562 615.457031 C 373.492188 615.976562 373.625 616.5 374.015625 617.023438 C 376.367188 613.886719 378.71875 611.144531 380.808594 608.664062 C 386.816406 601.476562 395.703125 597.035156 404.976562 597.820312 C 418.5625 598.863281 429.144531 606.574219 435.023438 619.375 C 436.984375 623.425781 437.636719 628.128906 437.375 632.960938 C 443.121094 635.3125 449.261719 640.015625 454.226562 650.074219 L 454.75 651.121094 L 455.011719 652.164062 C 455.664062 654.386719 460.628906 673.328125 453.441406 694.230469 C 452.660156 696.972656 451.484375 699.71875 450.046875 702.589844 C 448.609375 705.335938 450.175781 708.601562 452.921875 709.644531 C 459.582031 711.996094 469.511719 712.390625 483.230469 705.464844 C 483.230469 705.464844 494.984375 699.0625 491.457031 686.261719 C 491.457031 686.261719 507.917969 693.707031 516.800781 675.941406 C 517.585938 674.375 518.632812 672.804688 519.9375 671.5 C 522.160156 669.410156 524.769531 664.835938 522.679688 655.953125 C 522.679688 655.953125 550.246094 661.441406 561.480469 645.632812 C 561.480469 645.632812 575.328125 630.609375 560.828125 614.019531 C 560.828125 614.019531 591.003906 624.339844 601.847656 604.351562 C 601.847656 604.351562 611.644531 587.761719 607.726562 579.136719 C 607.464844 579.921875 606.941406 580.707031 606.417969 581.488281 Z M 606.417969 581.488281 " fill-opacity="1" fill-rule="nonzero"/><path fill="#bfb634" d="M 426.664062 367.898438 C 423.136719 367.375 419.871094 367.246094 416.734375 367.246094 C 408.113281 367.246094 401.578125 368.679688 396.878906 370.378906 C 399.621094 370.25 402.625 369.855469 405.890625 369.335938 C 412.03125 368.289062 419.347656 367.898438 426.664062 367.898438 Z M 426.664062 367.898438 " fill-opacity="1" fill-rule="nonzero"/><path fill="#bfb634" d="M 629.609375 378.660156 C 618.710938 379.917969 605.976562 382.28125 592.949219 386.605469 C 564.039062 396.375 543.871094 406.332031 526.652344 404.671875 C 522.902344 404.304688 519.453125 403.457031 515.941406 401.941406 C 503.960938 398.703125 479.609375 393.75 446.609375 384.957031 C 406.101562 374.011719 396.082031 385.859375 396.082031 385.859375 C 396.082031 385.859375 351.21875 422.972656 334.105469 431.007812 C 316.875 439.015625 319.722656 455.632812 322.742188 460.886719 C 325.757812 466.136719 333.777344 501.015625 334.628906 526.191406 C 335.332031 551.484375 357.347656 542.757812 357.347656 542.757812 C 379.660156 533.53125 379.945312 511.597656 379.945312 511.597656 C 387.652344 495.347656 390.542969 472.105469 390.542969 472.105469 C 404.246094 450.550781 417.988281 459.851562 424.023438 462.386719 C 429.914062 465.039062 483.621094 500.402344 508.675781 519.789062 C 533.863281 539.203125 586.445312 571.300781 586.445312 571.300781 C 590.78125 573.808594 594.269531 574.148438 595.71875 574.019531 C 597.851562 570.960938 599.691406 566.6875 598.972656 561.921875 C 598.972656 561.921875 614.570312 558.71875 621.625 546.453125 C 625.742188 539.308594 649.425781 538.039062 668.460938 538.222656 C 672.875 538.261719 676.546875 534.683594 676.636719 530.28125 C 677.929688 472.226562 664.75 422.476562 637.199219 382.1875 C 635.511719 379.695312 632.601562 378.324219 629.609375 378.660156 Z M 629.609375 378.660156 " fill-opacity="1" fill-rule="nonzero"/><path fill="#bfb634" d="M 783.734375 350.039062 C 783.226562 349.855469 782.585938 349.792969 782.050781 349.882812 L 649.972656 369.726562 C 647.582031 370.144531 646.539062 372.796875 647.792969 374.742188 C 679.65625 421.199219 693.046875 477.765625 689.152344 544.035156 C 688.996094 545.722656 690.289062 547.160156 691.972656 547.316406 L 833.636719 560.925781 C 835.453125 561.097656 837.140625 559.832031 837.191406 558 C 837.832031 532.449219 839.933594 370.472656 783.734375 350.039062 Z M 735.671875 533.351562 C 726.738281 532.488281 720.0625 525.839844 720.765625 518.457031 C 721.472656 511.078125 729.296875 505.8125 738.234375 506.671875 C 747.167969 507.535156 753.84375 514.183594 753.140625 521.566406 C 752.433594 528.949219 744.609375 534.210938 735.671875 533.351562 Z M 735.671875 533.351562 " fill-opacity="1" fill-rule="nonzero"/><path fill="#bfb634" d="M 221.15625 408.238281 C 191.109375 398.558594 99.246094 378.101562 68.78125 371.503906 C 63.292969 370.195312 57.730469 373.582031 56.160156 379.039062 L 1.710938 574.421875 C -0.0898438 580.914062 4.390625 587.355469 10.988281 587.996094 L 173.109375 603.582031 C 178.410156 604.089844 183.191406 600.628906 184.589844 595.535156 L 228.40625 421.09375 C 229.855469 415.605469 226.617188 409.9375 221.15625 408.238281 Z M 106.953125 582.183594 C 98.015625 581.320312 91.34375 574.671875 92.046875 567.289062 C 92.753906 559.910156 100.589844 554.527344 109.527344 555.386719 C 118.460938 556.25 125.125 563.03125 124.417969 570.410156 C 123.714844 577.792969 115.886719 583.042969 106.953125 582.183594 Z M 106.953125 582.183594 " fill-opacity="1" fill-rule="nonzero"/><path fill="#bfb634" d="M 239.171875 632.792969 C 262.449219 642.078125 269.78125 637.953125 271.035156 630.363281 C 271.359375 628.296875 271.753906 625.59375 272.039062 622.613281 C 259.628906 615.808594 239.757812 605.003906 222.488281 595.636719 C 222.488281 595.636719 215.890625 623.503906 239.171875 632.792969 Z M 239.171875 632.792969 " fill-opacity="1" fill-rule="nonzero"/><path fill="#bfb634" d="M 363.144531 639.6875 C 371.730469 615.46875 342.269531 610.179688 334.09375 612.621094 C 322.714844 616.03125 308.304688 632.882812 302.988281 639.492188 C 301.800781 640.96875 299.644531 641.242188 298.128906 640.105469 L 289.46875 633.707031 C 288.5 632.988281 287.15625 633.261719 286.515625 634.28125 C 282.960938 640.042969 273.660156 657.976562 286.699219 670.570312 C 302.425781 685.765625 322.9375 683.820312 328.65625 681.246094 C 334.394531 678.699219 354.578125 663.910156 363.144531 639.6875 Z M 363.144531 639.6875 " fill-opacity="1" fill-rule="nonzero"/><path fill="#bfb634" d="M 421.738281 646 C 421.621094 646.363281 421.464844 646.730469 421.332031 647.097656 C 424.273438 638.710938 425.789062 630.347656 423.214844 624.71875 C 418.589844 614.621094 411.144531 611.355469 404.585938 610.765625 C 399.488281 610.308594 394.511719 612.492188 391.257812 616.449219 C 381.199219 628.703125 355.636719 660.210938 349.585938 671.171875 C 342.007812 684.902344 341.054688 707.085938 363.523438 713.148438 C 376.640625 716.6875 389.050781 703.664062 397.136719 692.191406 C 396.890625 692.546875 396.71875 692.84375 396.472656 693.199219 C 396.445312 694.492188 396.445312 695.707031 396.472656 696.804688 C 396.601562 703.425781 399.28125 709.945312 404.414062 714.140625 C 419.386719 726.40625 436.003906 705.375 441.148438 690.128906 C 447.160156 672.347656 442.507812 655.785156 442.507812 655.785156 C 436.132812 642.851562 427.929688 643.074219 421.738281 646 Z M 406.492188 676.632812 C 406.492188 676.632812 405.773438 678.109375 404.519531 680.394531 C 405.785156 678.082031 406.492188 676.632812 406.492188 676.632812 C 406.492188 676.632812 407.300781 675.390625 408.554688 673.300781 C 407.328125 675.351562 406.492188 676.632812 406.492188 676.632812 Z M 406.492188 676.632812 " fill-opacity="1" fill-rule="nonzero"/><path fill="#bfb634" d="M 384.597656 237.820312 L 375.074219 330.027344 C 374.683594 333.617188 379.320312 335.328125 381.34375 332.339844 L 433.78125 255.941406 L 525.945312 265.570312 C 529.539062 265.960938 531.25 261.324219 528.257812 259.285156 L 451.902344 206.757812 L 461.492188 114.695312 C 461.882812 111.101562 457.246094 109.390625 455.21875 112.382812 L 402.714844 188.636719 L 310.617188 179.152344 C 307.023438 178.761719 305.3125 183.398438 308.304688 185.4375 Z M 384.597656 237.820312 " fill-opacity="1" fill-rule="nonzero"/><path fill="#bfb634" d="M 671.058594 118.785156 L 666.160156 166.179688 C 665.964844 168.023438 668.34375 168.910156 669.386719 167.367188 L 696.335938 128.085938 L 743.71875 133.039062 C 745.5625 133.234375 746.449219 130.855469 744.910156 129.808594 L 705.652344 102.808594 L 710.578125 55.476562 C 710.773438 53.636719 708.394531 52.746094 707.351562 54.289062 L 680.359375 93.492188 L 633.015625 88.621094 C 631.175781 88.425781 630.289062 90.800781 631.828125 91.847656 Z M 671.058594 118.785156 " fill-opacity="1" fill-rule="nonzero"/><path fill="#bfb634" d="M 130.871094 118.785156 L 125.972656 166.179688 C 125.777344 168.023438 128.15625 168.910156 129.199219 167.367188 L 156.152344 128.085938 L 203.535156 133.039062 C 205.386719 133.234375 206.265625 130.855469 204.722656 129.808594 L 165.464844 102.808594 L 170.390625 55.476562 C 170.585938 53.636719 168.210938 52.746094 167.164062 54.289062 L 140.175781 93.492188 L 92.84375 88.621094 C 91.003906 88.425781 90.113281 90.800781 91.65625 91.847656 Z M 130.871094 118.785156 " fill-opacity="1" fill-rule="nonzero"/></svg>