<?xml version="1.0" encoding="UTF-8"?>
<svg id="katman_1" xmlns="http://www.w3.org/2000/svg" version="1.1" viewBox="0 0 498.58 185.08">
  <!-- Generator: Adobe Illustrator 29.1.0, SVG Export Plug-In . SVG Version: 2.1.0 Build 142)  -->
  <defs>
    <style>
      .st0 {
        fill: #fff;
      }

      .st1 {
        fill: #9d803c;
      }

      .st2 {
        fill: #3d3d3c;
      }
    </style>
  </defs>
  <g>
    <path class="st0" d="M388.42,81.21c.06-1.06.09-2.15.09-3.25s-.03-2.31-.08-3.59c-.04-1.37-.36-2.37-.97-2.98-.6-.61-1.57-.92-2.88-.92h-3.53v23.47h2.18v-8.81h1.33l2,8.68.03.13h2.33l-2.27-9.23c1.12-.5,1.72-1.68,1.77-3.5ZM386.24,81.29c-.02.63-.16,1.08-.41,1.36-.25.27-.67.41-1.25.41h-1.36v-10.5h1.36c.58,0,1,.14,1.25.41.26.28.4.72.41,1.34.09,2.31.09,4.66,0,6.98Z"/>
    <polygon class="st0" points="391.44 93.95 398.04 93.95 398.04 91.87 393.62 91.87 393.62 83.17 397.76 83.17 397.76 81.12 393.62 81.12 393.62 72.56 398.04 72.56 398.04 70.48 391.44 70.48 391.44 93.95"/>
    <path class="st0" d="M403.12,87.24h2.94l.58,6.71h2.24l-2.4-23.47h-3.76l-2.41,23.28-.02.19h2.24l.58-6.71ZM404.37,72.56h.46l.6,7.73.43,4.87h-2.54l.43-4.84.63-7.76Z"/>
    <polygon class="st0" points="417.68 91.87 413.23 91.87 413.23 70.48 411.05 70.48 411.05 93.95 417.68 93.95 417.68 91.87"/>
    <polygon class="st0" points="381.04 122.56 387.64 122.56 387.64 120.48 383.22 120.48 383.22 111.78 387.36 111.78 387.36 109.73 383.22 109.73 383.22 101.17 387.64 101.17 387.64 99.1 381.04 99.1 381.04 122.56"/>
    <path class="st0" d="M397.52,111.62c-.37-.78-1.13-1.32-2.27-1.6l-1.36-.34c-.5-.14-.83-.4-.99-.77-.17-.4-.26-1.03-.28-1.88-.04-.75-.05-1.5-.05-2.23s.02-1.48.05-2.23c.03-.59.17-1.03.42-1.3.23-.26.64-.39,1.22-.39,1.06,0,1.57.53,1.61,1.68.02.79.03,1.58.03,2.37s0,1.57-.03,2.34v.18s2.12,0,2.12,0v-.17c.02-.85.03-1.66.03-2.45v-1.99c-.06-1.38-.38-2.39-.95-3.01-.58-.62-1.51-.93-2.78-.93-1.36,0-2.35.31-2.93.93-.58.62-.89,1.63-.91,3.02-.02.7-.03,1.41-.04,2.14-.01.73,0,1.43.01,2.06.04,1.34.23,2.4.57,3.13.36.76,1.11,1.29,2.22,1.57l1.48.41c.46.12.77.39.92.82.17.46.26,1.05.28,1.77.02.6.03,1.12.04,1.58.01.45.02.89.02,1.31,0,.4-.02.87-.05,1.43-.03.61-.17,1.06-.42,1.33-.23.26-.63.39-1.19.39-.6,0-1.02-.13-1.27-.4-.25-.27-.39-.71-.43-1.32-.04-.81-.05-1.64-.05-2.48s.02-1.68.05-2.53v-.18s-2.08,0-2.08,0v.16c-.06.91-.09,1.72-.09,2.39s0,1.48.03,2.36c.06,1.4.38,2.43.96,3.04.59.62,1.55.93,2.88.93s2.26-.31,2.85-.93c.58-.62.91-1.64.96-3.05,0-.52,0-.97.01-1.35,0-.39.01-.79.01-1.19s0-.91-.03-1.51c-.04-1.3-.24-2.35-.59-3.1Z"/>
    <polygon class="st0" points="399.7 101.17 402.54 101.17 402.54 122.56 404.75 122.56 404.75 101.17 407.55 101.17 407.55 99.1 399.7 99.1 399.7 101.17"/>
    <path class="st0" d="M410.48,99.1l-2.41,23.28-.02.19h2.24l.58-6.7h2.94l.58,6.7h2.24l-2.4-23.47h-3.76ZM412.12,101.17h.46l.6,7.73.43,4.87h-2.54l.43-4.84.63-7.76Z"/>
    <polygon class="st0" points="417.19 101.17 420.03 101.17 420.03 122.56 422.23 122.56 422.23 101.17 425.04 101.17 425.04 99.1 417.19 99.1 417.19 101.17"/>
    <polygon class="st0" points="433.64 101.17 433.64 99.1 427.04 99.1 427.04 122.56 433.64 122.56 433.64 120.48 429.22 120.48 429.22 111.78 433.36 111.78 433.36 109.73 429.22 109.73 429.22 101.17 433.64 101.17"/>
    <path class="st0" d="M164.81,94.42h-8.24v5.21h2.83c.06,3.18.06,11.29-.02,14.43-.07,2.34-1.11,3.38-3.38,3.38-1.12,0-1.93-.25-2.41-.75-.49-.5-.73-1.38-.73-2.62-.28-11.93-.28-24.04,0-36,.07-2.29,1.04-3.32,3.14-3.32s2.98,1.02,3.08,3.32c.12,3.42.12,5.98,0,9.35l-.03.77h5.49l.03-.72c.12-3.2.12-5.59,0-8.83-.13-3.12-.87-5.41-2.21-6.82-1.35-1.43-3.5-2.16-6.37-2.16s-5.2.74-6.56,2.19c-1.34,1.44-2.06,3.81-2.14,7.06-.2,11.4-.2,23.03,0,34.56.09,3.17.81,5.49,2.14,6.9,1.35,1.43,3.56,2.16,6.55,2.16s5.2-.73,6.58-2.15c1.36-1.41,2.11-3.73,2.24-6.91.04-2.96.06-6.93.06-9.06s-.02-7.59-.06-9.25l-.02-.73Z"/>
    <path class="st0" d="M185.67,71.78c-1.35-1.41-3.58-2.12-6.61-2.12s-5.2.71-6.57,2.12c-1.37,1.4-2.08,3.7-2.13,6.82-.12,6.08-.18,11.98-.18,17.53s.06,11.43.18,17.46c.04,3.13.76,5.42,2.13,6.82,1.37,1.4,3.59,2.12,6.57,2.12s5.25-.71,6.61-2.12c1.34-1.39,2.06-3.69,2.15-6.82.08-5.97.12-11.84.12-17.46s-.04-11.52-.12-17.54c-.09-3.12-.81-5.41-2.15-6.81ZM182.26,114.21c0,1.24-.24,2.12-.69,2.56-.45.44-1.32.67-2.52.67s-2-.23-2.46-.67c-.45-.44-.71-1.33-.75-2.58-.16-6.12-.24-12.25-.24-18.22s.08-12.01.24-17.97c.04-1.25.29-2.14.75-2.58.46-.45,1.29-.67,2.46-.67s2.06.23,2.52.67c.45.44.68,1.32.69,2.58.16,5.92.25,11.96.27,17.97.02,5.92-.07,12.05-.27,18.24Z"/>
    <polygon class="st0" points="198.74 70.1 193.24 70.1 193.24 122.08 208.45 122.08 208.45 116.81 198.74 116.81 198.74 70.1"/>
    <path class="st0" d="M228.83,72.29c-1.38-1.45-3.59-2.19-6.58-2.19h-8.52v51.98h8.46c2.99,0,5.21-.74,6.61-2.18,1.38-1.44,2.12-3.77,2.21-6.95.04-4.04.07-7.86.09-11.46.02-3.58.02-7.23,0-10.83-.02-3.62-.05-7.43-.09-11.44-.09-3.17-.82-5.5-2.18-6.93ZM225.45,113.3c-.03,1.28-.3,2.19-.8,2.73-.48.51-1.31.77-2.46.77h-2.96v-41.43h3.02c1.11,0,1.92.26,2.4.77.5.54.77,1.43.8,2.66.16,11.47.16,23.08,0,34.5Z"/>
    <polygon class="st0" points="236.06 122.08 251.21 122.08 251.21 116.81 241.56 116.81 241.56 98.54 250.6 98.54 250.6 93.33 241.56 93.33 241.56 75.38 251.21 75.38 251.21 70.1 236.06 70.1 236.06 122.08"/>
    <polygon class="st0" points="271.87 88.6 272.44 115.79 268.13 86.69 265.42 70.1 256.82 70.1 256.82 122.08 262.26 122.08 261.95 102.26 261.44 77.11 265.26 103.34 268.22 122.08 277 122.08 277 70.1 271.55 70.1 271.87 88.6"/>
    <polygon class="st0" points="308.29 70.64 302.28 70.64 298.78 81.97 295.41 94.16 295.93 82.05 295.99 70.64 290.25 70.64 290.25 122.62 295.81 122.62 295.81 105.72 297.39 101.44 303.15 122.07 303.3 122.62 309.04 122.62 300.82 93.99 308.29 70.64"/>
    <polygon class="st0" points="312.68 122.62 327.83 122.62 327.83 117.34 318.18 117.34 318.18 99.07 327.22 99.07 327.22 93.86 318.18 93.86 318.18 75.91 327.83 75.91 327.83 70.64 312.68 70.64 312.68 122.62"/>
    <polygon class="st0" points="345.2 70.64 342.98 85.55 341.38 98.26 339.72 85.53 337.5 70.64 331.78 70.64 338.19 106.48 338.6 108.68 338.6 122.62 344.1 122.62 344.09 108.81 350.86 70.64 345.2 70.64"/>
    <path class="st0" d="M370.54,105.12c-.08-2.91-.53-5.24-1.31-6.92-.85-1.8-2.6-3.05-5.2-3.69l-2.96-.76c-.99-.27-1.61-.75-1.91-1.46-.34-.83-.54-2.17-.58-3.98-.08-1.6-.12-3.24-.12-4.85s.04-3.25.12-4.85c.07-1.21.34-2.09.81-2.61.43-.49,1.24-.73,2.39-.73,2.1,0,3.07,1.02,3.14,3.31.04,1.82.06,3.5.06,5.16,0,1.12-.02,2.3-.04,3.48v.63s5.36,0,5.36,0v-.45c.03-1.31.05-2.63.05-3.88v-4.36c-.13-3.11-.86-5.41-2.17-6.82-1.33-1.44-3.47-2.16-6.34-2.16-3.07,0-5.32.73-6.67,2.16-1.34,1.41-2.04,3.72-2.09,6.83-.04,1.52-.07,3.08-.09,4.68-.02,1.6-.01,3.12.03,4.51.08,2.99.52,5.34,1.28,6.99.83,1.76,2.54,2.98,5.09,3.62l3.23.88c.9.23,1.46.73,1.76,1.55.35.97.55,2.23.59,3.74.04,1.3.07,2.45.09,3.43.02.99.03,1.94.03,2.86s-.04,1.95-.12,3.12c-.07,1.25-.34,2.15-.81,2.67-.44.48-1.22.73-2.33.73-1.19,0-2.03-.25-2.49-.74-.48-.52-.76-1.41-.83-2.65-.08-1.72-.12-3.53-.12-5.39,0-1.43.05-2.85.09-4.25l.02-.47h-5.35l-.02.44c-.08,1.65-.12,2.91-.12,3.95,0,1.49.02,3.23.06,5.17.13,3.16.87,5.48,2.21,6.89,1.35,1.43,3.56,2.16,6.55,2.16s5.14-.73,6.49-2.16c1.33-1.41,2.08-3.73,2.21-6.92,0-1.13,0-2.11.03-2.95.02-.85.03-1.72.03-2.6,0-.84-.02-1.92-.06-3.31Z"/>
    <g>
      <polygon class="st1" points="148.65 135.18 151.81 135.18 151.81 142 153.32 142 153.32 135.18 156.49 135.18 156.49 133.79 148.65 133.79 148.65 135.18"/>
      <path class="st1" d="M167.35,140.61h-4.57v-6.83h-1.51v7.06c0,.43.11.75.34.93.19.15.5.23.92.23h5.06c.4,0,.71-.09.92-.27.23-.19.35-.49.35-.89v-7.06h-1.51v6.83Z"/>
      <g>
        <rect class="st1" x="162.85" y="131.65" width="1.73" height="1.49"/>
        <rect class="st1" x="165.56" y="131.65" width="1.73" height="1.49"/>
      </g>
      <path class="st1" d="M179.09,138.85c.87,0,1.46-.15,1.81-.45.3-.27.46-.65.46-1.15v-1.24c0-.75-.1-1.27-.29-1.58-.27-.42-.78-.64-1.53-.64h-5.69v8.21h1.51v-3.15h1.38l3.13,3.15h2.09s-3.13-3.15-3.13-3.15h.27ZM175.36,135.18h3.75c.57,0,.69.13.7.15,0,.01.08.15.08.83v.69c0,.32-.07.43-.1.47-.09.1-.29.15-.58.15h-3.85v-2.28Z"/>
      <polygon class="st1" points="194.3 133.79 192.09 133.79 187.97 137.09 187.97 133.79 186.46 133.79 186.46 142 187.97 142 187.97 138.7 192.29 141.95 192.35 141.99 194.92 142 189.35 137.81 194.3 133.79"/>
      <rect class="st1" x="199.44" y="134.06" width="1.43" height="7.94"/>
      <path class="st1" d="M200.17,131.71c-.43,0-.79.36-.79.78s.35.8.79.8.76-.37.76-.8-.35-.78-.76-.78Z"/>
      <polygon class="st1" points="210.21 137.12 207.46 133.79 205.56 133.79 209.45 138.47 209.45 142 210.96 142 210.96 138.47 214.86 133.79 212.96 133.79 210.21 137.12"/>
      <polygon class="st1" points="220.81 138.47 224.06 138.47 224.06 137.08 220.81 137.08 220.81 135.18 226.32 135.18 226.32 133.79 219.3 133.79 219.3 142 226.37 142 226.37 140.61 220.81 140.61 220.81 138.47"/>
      <polygon class="st1" points="231.35 135.82 231.78 135.82 231.23 137.48 232.3 137.48 233.31 135.23 233.33 133.79 231.35 133.79 231.35 135.82"/>
      <polygon class="st1" points="245.1 139.63 239.63 133.86 239.56 133.79 238.38 133.79 238.38 142 239.89 142 239.89 136.32 245.28 141.99 246.61 142 246.61 133.79 245.1 133.79 245.1 139.63"/>
      <rect class="st1" x="251.98" y="134.06" width="1.43" height="7.94"/>
      <path class="st1" d="M252.72,131.71c-.43,0-.79.36-.79.78s.35.8.79.8.76-.37.76-.8-.35-.78-.76-.78Z"/>
      <polygon class="st1" points="265.53 139.63 260.06 133.86 259.99 133.79 258.81 133.79 258.81 142 260.32 142 260.32 136.32 265.71 141.99 267.04 142 267.04 133.79 265.53 133.79 265.53 139.63"/>
      <path class="st1" d="M281.91,133.79l-4.22,8.21h1.66s1.04-1.97,1.04-1.97h4.05l1.04,1.98h1.67s-4.21-8.21-4.21-8.21h-1.02ZM283.73,138.63h-2.65l1.32-2.63,1.33,2.63Z"/>
      <polygon class="st1" points="293.18 133.79 291.68 133.79 291.68 142 298.38 142 298.38 140.61 293.18 140.61 293.18 133.79"/>
      <polygon class="st1" points="302.74 135.18 305.9 135.18 305.9 142 307.41 142 307.41 135.18 310.57 135.18 310.57 133.79 302.74 133.79 302.74 135.18"/>
      <rect class="st1" x="315.27" y="133.79" width="1.51" height="8.21"/>
      <polygon class="st1" points="328.59 139.63 323.12 133.86 323.05 133.79 321.88 133.79 321.88 142 323.38 142 323.38 136.32 328.78 141.99 330.1 142 330.1 133.79 328.59 133.79 328.59 139.63"/>
      <path class="st1" d="M345.99,133.79h-1.02l-4.22,8.21h1.65s1.04-1.97,1.04-1.97h4.05l1.04,1.98h1.67s-4.15-8.09-4.15-8.09l-.06-.13ZM346.79,138.63h-2.65l1.32-2.63,1.33,2.63Z"/>
      <polygon class="st1" points="361.46 139.63 355.98 133.86 355.91 133.79 354.74 133.79 354.74 142 356.24 142 356.24 136.32 361.64 141.99 362.96 142 362.96 133.79 361.46 133.79 361.46 139.63"/>
      <path class="st1" d="M372.63,133.79h-1.02l-4.22,8.21h1.65s1.04-1.97,1.04-1.97h4.05l1.04,1.98h1.67s-4.15-8.09-4.15-8.09l-.06-.13ZM373.44,138.63h-2.65l1.32-2.63,1.33,2.63Z"/>
      <polygon class="st1" points="388 137.11 382.89 137.11 382.89 133.79 381.39 133.79 381.39 142 382.89 142 382.89 138.56 388 138.56 388 142 389.51 142 389.51 133.79 388 133.79 388 137.11"/>
      <polygon class="st1" points="394.23 135.18 397.4 135.18 397.4 142 398.9 142 398.9 135.18 402.07 135.18 402.07 133.79 394.23 133.79 394.23 135.18"/>
      <path class="st1" d="M411.34,133.79h-1.02l-4.22,8.21h1.65s1.04-1.97,1.04-1.97h4.05l1.04,1.98h1.67s-4.15-8.09-4.15-8.09l-.06-.13ZM412.15,138.63h-2.65l1.32-2.63,1.33,2.63Z"/>
      <path class="st1" d="M425.34,138.85c.87,0,1.46-.15,1.81-.45.3-.27.46-.66.46-1.15v-1.24c0-.75-.09-1.27-.29-1.58-.27-.42-.78-.64-1.53-.64h-5.69v8.21h1.51v-3.15h1.38l3.13,3.15h2.09s-3.13-3.15-3.13-3.15h.27ZM421.6,135.18h3.75c.57,0,.69.13.7.15.01.02.08.16.08.83v.69c0,.32-.07.43-.1.47-.08.1-.29.15-.58.15h-3.85v-2.28Z"/>
      <rect class="st1" x="432.71" y="133.79" width="1.5" height="8.21"/>
    </g>
    <path class="st1" d="M112.87,139.84s.04,0,.04,0l3.83-4.39s.02-.04.02-.06v-33.34s0-.03-.02-.04c-.02-.01-.07,0-.07,0l-3.76.56s-.07.04-.07.08v37.18s0,.02.02.03Z"/>
    <g>
      <path class="st1" d="M90.49,73.24h5.17v3.22c0,.98-.8,1.81-1.81,1.81h-6.7c-.98,0-1.81-.83-1.81-1.81v-11.22c0-1.02.83-1.81,1.81-1.81h11.33v-4.82h-11.4c-3.58,0-6.52,2.93-6.52,6.52v11.4c0,3.58,2.93,6.52,6.52,6.52h6.88c3.58,0,6.52-2.93,6.52-6.52v-8.11h-9.99v4.82Z"/>
      <path class="st1" d="M115.72,70.95l7.67-12.03h-6.01l-7.7,12.09c-.06.09-.06.21,0,.3l8.32,12.05h6.01l-8.29-12c-.08-.12-.09-.28,0-.4Z"/>
      <path class="st1" d="M143.85,45.34l-8.62,4.26-2.07-9.31h-.62l-1.9,9.05-17.48-9.9c-5.12-2.67-6.99-3.22-9.94-3.16-2.02.04-5.8,1.25-10.3,3.24l-28.98,13.83c-.09.04-.15.14-.15.24v5.13l4.3-2.11v34l.5.36c7.98,5.5,17.04,7.81,24.81,8.65v20.77c0,.08-.02.16-.07.22l-4.9,7.45c-.07.11-.07.25,0,.35l3.28,4.82c.05.07.05.16,0,.24l-2.57,4.56c-.06.11-.06.24.01.34l6.96,10.62c.07.1.18.16.3.16h5.84c.1,0,.19-.04.25-.11l6.57-6.82c.07-.08.12-.18.12-.29v-42.37c9.67-1.03,18.76-3.91,25.77-8.58l.55-.43.1-34.36,7.6,3.71v-1.21l-5.41-5.39,6.05-7.06.03-.91ZM130.64,88.16l-.26.15c-6.13,3.58-13.06,5.57-21.16,6.32v-4.7s0,0,0,0v-31.31h-4.97v31.31h-.03v49.88c0,.13-.05.25-.14.35l-4.39,4.41c-.14.14-.37.11-.47-.05l-4.18-6.37c-.06-.09-.07-.22-.01-.31l2.48-4.44c.08-.14.07-.31-.01-.44l-2.97-4.58c-.08-.12-.08-.29,0-.41l3.78-6.27c.14-.23.21-.49.21-.76l.03-25.78c0-.1-.08-.19-.18-.19-6.95-.2-16-1.34-25.11-6.61l-.2-.15v-33.81l19.58-9.26c4.7-2.36,7.99-3.94,10.63-3.99,1.84-.04,3.49.47,4.89,1.05,2.36.98,3.42,1.62,6.47,3.24l14.31,7.74-4.58,5.35v1.35l6.28-3.71v31.96Z"/>
    </g>
  </g>
</svg>